<mxfile host="app.diagrams.net" modified="2023-10-18T10:00:14.268Z" agent="Mozilla/5.0 (Windows NT 10.0; Win64; x64) AppleWebKit/537.36 (KHTML, like Gecko) Chrome/116.0.0.0 Whale/3.22.205.26 Safari/537.36" etag="VEcZ4-ZtAx-UxX41iV1v" version="22.0.4" type="device">
  <diagram name="페이지-1" id="n2HF2ay1V8_9gVUOszD0">
    <mxGraphModel dx="1018" dy="830" grid="1" gridSize="10" guides="1" tooltips="1" connect="1" arrows="1" fold="1" page="1" pageScale="1" pageWidth="827" pageHeight="1169" math="0" shadow="0">
      <root>
        <mxCell id="0" />
        <mxCell id="1" parent="0" />
        <mxCell id="64_QCXdCVJKurTlPlhXz-32" value="" style="rounded=0;whiteSpace=wrap;html=1;" vertex="1" parent="1">
          <mxGeometry x="10" y="10" width="700" height="420" as="geometry" />
        </mxCell>
        <mxCell id="64_QCXdCVJKurTlPlhXz-28" value="" style="rounded=0;whiteSpace=wrap;html=1;" vertex="1" parent="1">
          <mxGeometry x="40" y="240" width="280" height="120" as="geometry" />
        </mxCell>
        <mxCell id="64_QCXdCVJKurTlPlhXz-13" value="" style="rounded=0;whiteSpace=wrap;html=1;" vertex="1" parent="1">
          <mxGeometry x="400" y="40" width="280" height="120" as="geometry" />
        </mxCell>
        <mxCell id="64_QCXdCVJKurTlPlhXz-6" value="" style="rounded=0;whiteSpace=wrap;html=1;" vertex="1" parent="1">
          <mxGeometry x="40" y="40" width="280" height="120" as="geometry" />
        </mxCell>
        <mxCell id="64_QCXdCVJKurTlPlhXz-2" value="1 2&amp;nbsp; &amp;nbsp; 3 4&amp;nbsp; &amp;nbsp; 5 6&amp;nbsp; &amp;nbsp; 7 8" style="text;html=1;strokeColor=none;fillColor=none;align=center;verticalAlign=middle;whiteSpace=wrap;rounded=0;fontSize=20;" vertex="1" parent="1">
          <mxGeometry x="40" y="40" width="280" height="40" as="geometry" />
        </mxCell>
        <mxCell id="64_QCXdCVJKurTlPlhXz-3" value="" style="endArrow=classic;html=1;rounded=0;" edge="1" parent="1">
          <mxGeometry width="50" height="50" relative="1" as="geometry">
            <mxPoint x="180" y="80" as="sourcePoint" />
            <mxPoint x="180" y="120" as="targetPoint" />
          </mxGeometry>
        </mxCell>
        <mxCell id="64_QCXdCVJKurTlPlhXz-4" value="0 1&amp;nbsp; &amp;nbsp; 2 3&amp;nbsp; &amp;nbsp; 4 5&amp;nbsp; &amp;nbsp; 6 7" style="text;html=1;strokeColor=none;fillColor=none;align=center;verticalAlign=middle;whiteSpace=wrap;rounded=0;fontSize=20;" vertex="1" parent="1">
          <mxGeometry x="40" y="120" width="280" height="40" as="geometry" />
        </mxCell>
        <mxCell id="64_QCXdCVJKurTlPlhXz-5" value="-1" style="text;html=1;strokeColor=none;fillColor=none;align=center;verticalAlign=middle;whiteSpace=wrap;rounded=0;fontSize=20;" vertex="1" parent="1">
          <mxGeometry x="190" y="80" width="40" height="40" as="geometry" />
        </mxCell>
        <mxCell id="64_QCXdCVJKurTlPlhXz-7" value="&lt;font style=&quot;font-size: 19px;&quot;&gt;2로 나누었을 때 몫이 같아졌다.&lt;/font&gt;" style="rounded=0;whiteSpace=wrap;html=1;" vertex="1" parent="1">
          <mxGeometry x="40" y="160" width="280" height="40" as="geometry" />
        </mxCell>
        <mxCell id="64_QCXdCVJKurTlPlhXz-9" value="0 1&amp;nbsp; &amp;nbsp; 2 3&amp;nbsp; &amp;nbsp; 4 5&amp;nbsp; &amp;nbsp; 6 7" style="text;html=1;strokeColor=none;fillColor=none;align=center;verticalAlign=middle;whiteSpace=wrap;rounded=0;fontSize=20;" vertex="1" parent="1">
          <mxGeometry x="400" y="40" width="280" height="40" as="geometry" />
        </mxCell>
        <mxCell id="64_QCXdCVJKurTlPlhXz-10" value="" style="endArrow=classic;html=1;rounded=0;" edge="1" parent="1">
          <mxGeometry width="50" height="50" relative="1" as="geometry">
            <mxPoint x="540" y="80" as="sourcePoint" />
            <mxPoint x="540" y="120" as="targetPoint" />
          </mxGeometry>
        </mxCell>
        <mxCell id="64_QCXdCVJKurTlPlhXz-11" value="0 0&amp;nbsp; &amp;nbsp; 1 1&amp;nbsp; &amp;nbsp; 2 2&amp;nbsp; &amp;nbsp; 3 3" style="text;html=1;strokeColor=none;fillColor=none;align=center;verticalAlign=middle;whiteSpace=wrap;rounded=0;fontSize=20;" vertex="1" parent="1">
          <mxGeometry x="400" y="120" width="280" height="40" as="geometry" />
        </mxCell>
        <mxCell id="64_QCXdCVJKurTlPlhXz-12" value="2로 나눈 몫" style="text;html=1;strokeColor=none;fillColor=none;align=center;verticalAlign=middle;whiteSpace=wrap;rounded=0;fontSize=20;" vertex="1" parent="1">
          <mxGeometry x="550" y="80" width="110" height="40" as="geometry" />
        </mxCell>
        <mxCell id="64_QCXdCVJKurTlPlhXz-14" value="&lt;font style=&quot;font-size: 18px;&quot;&gt;진출자는 승패와 관련이 없어졌다.&lt;/font&gt;" style="rounded=0;whiteSpace=wrap;html=1;" vertex="1" parent="1">
          <mxGeometry x="400" y="160" width="280" height="40" as="geometry" />
        </mxCell>
        <mxCell id="64_QCXdCVJKurTlPlhXz-18" value="0 0&amp;nbsp; &amp;nbsp; 1 1&amp;nbsp; &amp;nbsp; 2 2&amp;nbsp; &amp;nbsp; 3 3" style="text;html=1;strokeColor=none;fillColor=none;align=center;verticalAlign=middle;whiteSpace=wrap;rounded=0;fontSize=20;" vertex="1" parent="1">
          <mxGeometry x="40" y="320" width="280" height="40" as="geometry" />
        </mxCell>
        <mxCell id="64_QCXdCVJKurTlPlhXz-21" value="" style="shape=partialRectangle;whiteSpace=wrap;html=1;bottom=1;right=1;left=1;top=0;fillColor=none;routingCenterX=-0.5;rotation=-180;" vertex="1" parent="1">
          <mxGeometry x="100" y="290" width="60" height="30" as="geometry" />
        </mxCell>
        <mxCell id="64_QCXdCVJKurTlPlhXz-22" value="" style="shape=partialRectangle;whiteSpace=wrap;html=1;bottom=1;right=1;left=1;top=0;fillColor=none;routingCenterX=-0.5;rotation=-180;" vertex="1" parent="1">
          <mxGeometry x="200" y="290" width="60" height="30" as="geometry" />
        </mxCell>
        <mxCell id="64_QCXdCVJKurTlPlhXz-23" value="0 1&amp;nbsp; &amp;nbsp; &amp;nbsp; &amp;nbsp; &amp;nbsp; &amp;nbsp; &amp;nbsp;2 3" style="text;html=1;strokeColor=none;fillColor=none;align=center;verticalAlign=middle;whiteSpace=wrap;rounded=0;fontSize=20;" vertex="1" parent="1">
          <mxGeometry x="40" y="240" width="280" height="40" as="geometry" />
        </mxCell>
        <mxCell id="64_QCXdCVJKurTlPlhXz-26" value="" style="endArrow=none;html=1;rounded=0;" edge="1" parent="1">
          <mxGeometry width="50" height="50" relative="1" as="geometry">
            <mxPoint x="129.5" y="290" as="sourcePoint" />
            <mxPoint x="129.5" y="270" as="targetPoint" />
          </mxGeometry>
        </mxCell>
        <mxCell id="64_QCXdCVJKurTlPlhXz-27" value="" style="endArrow=none;html=1;rounded=0;" edge="1" parent="1">
          <mxGeometry width="50" height="50" relative="1" as="geometry">
            <mxPoint x="229.5" y="290" as="sourcePoint" />
            <mxPoint x="229.5" y="270" as="targetPoint" />
          </mxGeometry>
        </mxCell>
        <mxCell id="64_QCXdCVJKurTlPlhXz-29" value="&lt;font style=&quot;font-size: 19px;&quot;&gt;다시 0, 1과 2, 3의 과정을 진행&lt;/font&gt;" style="rounded=0;whiteSpace=wrap;html=1;" vertex="1" parent="1">
          <mxGeometry x="40" y="360" width="280" height="40" as="geometry" />
        </mxCell>
      </root>
    </mxGraphModel>
  </diagram>
</mxfile>
